<?xml version="1.0" standalone="no"?>
<!DOCTYPE svg PUBLIC "-//W3C//DTD SVG 1.1//EN" "http://www.w3.org/Graphics/SVG/1.1/DTD/svg11.dtd" >
<svg xmlns="http://www.w3.org/2000/svg">
<metadata></metadata>
<defs>
<font id="refrigerator_deluxe_lightRg" horiz-adv-x="864" >
<font-face units-per-em="2048" ascent="1741" descent="-307" />
<missing-glyph horiz-adv-x="409" />
<glyph horiz-adv-x="0" />
<glyph horiz-adv-x="682" />
<glyph unicode=" "  horiz-adv-x="409" />
<glyph unicode="&#x09;" horiz-adv-x="409" />
<glyph unicode="&#xa0;" horiz-adv-x="409" />
<glyph unicode="!" horiz-adv-x="454" d="M145 61q0 33 25 57.5t57 24.5q35 0 58.5 -24.5t23.5 -57.5q0 -35 -23.5 -58t-58.5 -23q-33 0 -57.5 23.5t-24.5 57.5zM176 358v1076h103v-1076h-103z" />
<glyph unicode="&#x22;" horiz-adv-x="765" d="M176 1434h125l-37 -412h-49zM463 1434h125l-39 -412h-49z" />
<glyph unicode="#" horiz-adv-x="1026" d="M61 440l21 62h182l144 432h-177l21 61h176l145 439h66l-145 -439h219l145 439h66l-146 -439h187l-21 -61h-186l-144 -432h181l-21 -62h-180l-145 -440h-66l145 440h-219l-145 -440h-66l146 440h-183zM330 502h219l143 432h-219z" />
<glyph unicode="$" d="M125 389v100h102v-100q0 -43 31 -72.5t72 -29.5h205q43 0 72.5 29.5t29.5 72.5v98q0 51 -17.5 72t-46.5 37l-323 164q-59 29 -92 78t-33 114v92q0 86 59.5 145.5t145.5 59.5h61v185h82v-185h62q86 0 145 -59.5t59 -145.5v-94h-102v94q0 43 -29.5 73t-72.5 30h-205 q-41 0 -72 -30t-31 -73v-79q0 -51 17.5 -72t46.5 -37l323 -164q59 -29 92 -78t33 -114v-111q0 -86 -59 -145.5t-145 -59.5h-62v-184h-82v184h-61q-86 0 -145.5 59.5t-59.5 145.5z" />
<glyph unicode="%" horiz-adv-x="1241" d="M125 852v444q0 57 41 97.5t98 40.5h115q57 0 98 -40t41 -98v-444q0 -57 -41 -97t-98 -40h-115q-57 0 -98 40t-41 97zM197 852q0 -29 19.5 -49.5t47.5 -20.5h115q29 0 48 20.5t19 49.5v444q0 29 -19 48.5t-48 19.5h-115q-29 0 -48 -19.5t-19 -48.5v-444zM352 0l475 1434 h64l-473 -1434h-66zM725 137v445q0 57 40 97t97 40h117q57 0 97 -40t40 -97v-445q0 -57 -40 -97t-97 -40h-117q-57 0 -97 40t-40 97zM795 137q0 -29 19.5 -48t47.5 -19h117q29 0 48.5 19.5t19.5 47.5v445q0 29 -19.5 49t-48.5 20h-117q-29 0 -48 -20.5t-19 -48.5v-445z" />
<glyph unicode="&#x26;" horiz-adv-x="1173" d="M125 205v276q0 70 21.5 116t64.5 89l90 92l-90 92q-39 41 -62.5 94.5t-23.5 108.5v156q0 86 59.5 145.5t145.5 59.5h205q86 0 145 -59.5t59 -145.5v-154h-102v154q0 43 -29.5 72.5t-72.5 29.5h-205q-41 0 -72 -29.5t-31 -72.5v-156q0 -82 56 -133l403 -401l154 303h112 l-190 -379l412 -406l-72 -71l-387 383l-129 -258q-23 -43 -66 -77t-125 -34h-65q-86 0 -145.5 59.5t-59.5 145.5zM227 205q0 -43 31 -73t72 -30h65q72 0 103 60l141 282l-266 263l-90 -93q-55 -55 -56 -133v-276z" />
<glyph unicode="'" horiz-adv-x="456" d="M176 1436h125l-37 -412h-49z" />
<glyph unicode="(" horiz-adv-x="456" d="M145 666q0 614 217 972h39q-164 -369 -163 -972q0 -606 163 -975h-39q-217 358 -217 975z" />
<glyph unicode=")" horiz-adv-x="456" d="M55 -309q164 369 164 975q0 604 -164 972h39q217 -358 217 -972q0 -616 -217 -975h-39z" />
<glyph unicode="*" horiz-adv-x="700" d="M74 1022l233 115l-233 114l41 68l213 -145l-17 260h80l-18 -260l215 145l41 -68l-236 -114l236 -115l-41 -68l-215 144l18 -258h-80l17 258l-213 -144z" />
<glyph unicode="+" horiz-adv-x="966" d="M74 434v92h358v365h92v-365h369v-92h-369v-362h-92v362h-358z" />
<glyph unicode="," horiz-adv-x="372" d="M104 61q0 35 24 58.5t58 23.5q35 0 58.5 -23.5t23.5 -58.5q0 -18 -6 -32l-106 -234h-50l70 185q-29 4 -50.5 27.5t-21.5 53.5z" />
<glyph unicode="-" horiz-adv-x="579" d="M74 434v92h432v-92h-432z" />
<glyph unicode="." horiz-adv-x="372" d="M104 61q0 35 24 58.5t58 23.5q35 0 58.5 -23.5t23.5 -58.5t-23.5 -58t-58.5 -23t-58.5 23.5t-23.5 57.5z" />
<glyph unicode="/" horiz-adv-x="653" d="M57 -309l475 1947h64l-473 -1947h-66z" />
<glyph unicode="0" d="M125 205v1024q0 86 59.5 145.5t145.5 59.5h205q86 0 145 -59.5t59 -145.5v-1024q0 -86 -59 -145.5t-145 -59.5h-205q-86 0 -145.5 59.5t-59.5 145.5zM227 205q0 -43 31 -73t72 -30h205q43 0 72.5 30t29.5 73v1024q0 43 -29.5 72.5t-72.5 29.5h-205q-41 0 -72 -29.5 t-31 -72.5v-1024z" />
<glyph unicode="1" horiz-adv-x="634" d="M61 0v102h205v1229h-205v103h308v-1332h204v-102h-512z" />
<glyph unicode="2" d="M125 0v303q0 84 49 143l436 549q10 14 18.5 35t8.5 45v154q0 43 -29.5 72.5t-72.5 29.5h-205q-41 0 -72 -29.5t-31 -72.5v-205h-102v205q0 86 59.5 145.5t145.5 59.5h205q86 0 145 -59.5t59 -145.5v-154q0 -84 -49 -143l-436 -549q-10 -14 -18.5 -34.5t-8.5 -45.5v-201 h512v-102h-614z" />
<glyph unicode="3" d="M125 205v153h102v-153q0 -43 31 -73t72 -30h205q43 0 72.5 30t29.5 73v399q0 43 -29.5 73t-72.5 30h-256v102h256q43 0 72.5 29.5t29.5 72.5v318q0 43 -29.5 72.5t-72.5 29.5h-205q-41 0 -72 -29.5t-31 -72.5v-154h-102v154q0 86 59.5 145.5t145.5 59.5h205 q86 0 145 -59.5t59 -145.5v-316q0 -59 -27.5 -101t-74.5 -56q47 -14 74.5 -56.5t27.5 -101.5v-393q0 -86 -59 -145.5t-145 -59.5h-205q-86 0 -145.5 59.5t-59.5 145.5z" />
<glyph unicode="4" horiz-adv-x="854" d="M94 358v103l461 973h102v-973h103v-103h-103v-358h-102v358h-461zM195 461h360v790z" />
<glyph unicode="5" d="M125 205v153h102v-153q0 -43 31 -73t72 -30h205q43 0 72.5 30t29.5 73v553q0 43 -29.5 72.5t-72.5 29.5h-205q-41 0 -72 -29.5t-31 -72.5v-51h-102v727h584v-103h-482v-471q41 102 160 103h148q86 0 145 -59.5t59 -145.5v-553q0 -86 -59 -145.5t-145 -59.5h-205 q-86 0 -145.5 59.5t-59.5 145.5z" />
<glyph unicode="6" d="M125 205v1024q0 86 59.5 145.5t145.5 59.5h205q86 0 145 -59.5t59 -145.5v-154h-102v154q0 43 -29.5 72.5t-72.5 29.5h-205q-41 0 -72 -29.5t-31 -72.5v-522q41 102 160 102h148q43 0 79.5 -16.5t64.5 -44t44 -64.5t16 -80v-399q0 -43 -16 -80t-44 -64.5t-64.5 -44 t-79.5 -16.5h-205q-86 0 -145.5 59.5t-59.5 145.5zM227 205q0 -43 31 -73t72 -30h205q43 0 72.5 30t29.5 73v399q0 43 -29.5 73t-72.5 30h-205q-41 0 -72 -30t-31 -73v-399z" />
<glyph unicode="7" horiz-adv-x="770" d="M61 1075v359h615v-103l-295 -1331h-115l307 1331h-409v-256h-103z" />
<glyph unicode="8" d="M125 205v399q0 55 27.5 97t74.5 57q-47 14 -74.5 56t-27.5 97v318q0 86 59.5 145.5t145.5 59.5h205q86 0 145 -59.5t59 -145.5v-318q0 -55 -27.5 -97t-74.5 -56q47 -14 74.5 -56.5t27.5 -97.5v-399q0 -86 -59 -145.5t-145 -59.5h-205q-86 0 -145.5 59.5t-59.5 145.5z M227 205q0 -43 31 -73t72 -30h205q43 0 72.5 30t29.5 73v399q0 43 -29.5 73t-72.5 30h-205q-41 0 -72 -30t-31 -73v-399zM227 911q0 -43 31 -72.5t72 -29.5h205q43 0 72.5 29.5t29.5 72.5v318q0 43 -29.5 72.5t-72.5 29.5h-205q-41 0 -72 -29.5t-31 -72.5v-318z" />
<glyph unicode="9" d="M125 205v153h102v-153q0 -43 31 -73t72 -30h205q43 0 72.5 30t29.5 73v522q-37 -102 -158 -102h-149q-86 0 -145.5 59t-59.5 145v400q0 86 59.5 145.5t145.5 59.5h205q86 0 145 -59.5t59 -145.5v-1024q0 -86 -59 -145.5t-145 -59.5h-205q-86 0 -145.5 59.5t-59.5 145.5z M227 829q0 -43 31 -72.5t72 -29.5h205q43 0 72.5 29.5t29.5 72.5v400q0 43 -29.5 72.5t-72.5 29.5h-205q-41 0 -72 -29.5t-31 -72.5v-400z" />
<glyph unicode=":" horiz-adv-x="372" d="M104 61q0 35 24 58.5t58 23.5q35 0 58.5 -23.5t23.5 -58.5t-23.5 -58t-58.5 -23t-58.5 23.5t-23.5 57.5zM104 901q0 35 24 58.5t58 23.5q35 0 58.5 -23.5t23.5 -58.5t-23.5 -58.5t-58.5 -23.5t-58.5 23.5t-23.5 58.5z" />
<glyph unicode=";" horiz-adv-x="372" d="M104 61q0 35 24 58.5t58 23.5q35 0 58.5 -23.5t23.5 -58.5q0 -18 -6 -32l-106 -234h-50l70 185q-29 4 -50.5 27.5t-21.5 53.5zM104 901q0 35 24 58.5t58 23.5q35 0 58.5 -23.5t23.5 -58.5t-23.5 -58.5t-58.5 -23.5t-58.5 23.5t-23.5 58.5z" />
<glyph unicode="&#x3c;" horiz-adv-x="966" d="M74 434v92l819 379v-102l-698 -324l698 -321v-103z" />
<glyph unicode="=" horiz-adv-x="966" d="M74 252v92h819v-92h-819zM74 621v92h819v-92h-819z" />
<glyph unicode="&#x3e;" horiz-adv-x="966" d="M74 55v103l698 321l-698 324v102l819 -379v-92z" />
<glyph unicode="?" d="M125 1075v154q0 86 59.5 145.5t145.5 59.5h205q86 0 145 -59.5t59 -145.5v-146q0 -51 -25.5 -99t-74.5 -99l-213 -215q-35 -35 -35 -84q0 -47 31 -74l106 -111l-63 -61l-111 106q-53 53 -53 138q0 98 61 157l230 228q45 45 45 98v162q0 43 -29.5 72.5t-72.5 29.5h-205 q-41 0 -72 -29.5t-31 -72.5v-154h-102zM352 61q0 33 24.5 57.5t57.5 24.5q35 0 58.5 -24.5t23.5 -57.5t-23.5 -57t-58.5 -24q-33 0 -57.5 24.5t-24.5 56.5z" />
<glyph unicode="@" horiz-adv-x="1198" d="M125 225v516q0 98 37 184.5t101.5 151t151.5 102.5t185 38t184 -38t150.5 -102.5t102.5 -151.5t38 -184v-620q0 -121 -121 -121h-75q-51 0 -78 28.5t-37 63.5q-12 -35 -50 -63.5t-98 -28.5h-98q-78 0 -131 53t-53 131v594q0 78 53 131.5t131 53.5h98q41 0 69 -12.5 t45.5 -29t24.5 -30.5t9 -21v93h92v-842q0 -47 17.5 -63.5t64.5 -16.5h16q47 0 62.5 16.5t15.5 63.5v620q0 88 -33.5 167t-93 138.5t-138.5 93.5t-167 34q-90 0 -168 -34t-137 -93.5t-93 -138.5t-34 -167v-516q0 -90 34 -167.5t93 -137t137 -93.5t168 -34q123 0 225 64 l27 -35q-55 -35 -118.5 -53.5t-133.5 -18.5q-98 0 -185 37t-151.5 101.5t-101.5 151.5t-37 185zM426 184q0 -39 26.5 -65.5t65.5 -26.5h154q39 0 65.5 26.5t26.5 65.5v594q0 39 -26.5 65.5t-65.5 26.5h-154q-39 0 -65.5 -26.5t-26.5 -65.5v-594z" />
<glyph unicode="A" horiz-adv-x="876" d="M53 0l307 1434h156l307 -1434h-114l-50 256h-440l-51 -256h-115zM242 358h395l-195 951z" />
<glyph unicode="B" horiz-adv-x="866" d="M127 0v1434h410q86 0 145 -59.5t59 -145.5v-314q0 -61 -27.5 -102t-74.5 -55q47 -14 74.5 -55t27.5 -103v-395q0 -86 -59 -145.5t-145 -59.5h-410zM229 102h308q43 0 72.5 30t29.5 73v399q0 43 -29.5 73t-72.5 30h-308v-605zM229 809h308q43 0 72.5 29.5t29.5 72.5v318 q0 43 -29.5 72.5t-72.5 29.5h-308v-522z" />
<glyph unicode="C" horiz-adv-x="866" d="M125 205v1024q0 86 59.5 145.5t145.5 59.5h205q86 0 145 -59.5t59 -145.5v-205h-102v205q0 43 -29.5 72.5t-72.5 29.5h-205q-41 0 -72 -29.5t-31 -72.5v-1024q0 -43 31 -73t72 -30h205q43 0 72.5 30t29.5 73v205h102v-205q0 -86 -59 -145.5t-145 -59.5h-205 q-86 0 -145.5 59.5t-59.5 145.5z" />
<glyph unicode="D" horiz-adv-x="866" d="M125 0v1434h410q86 0 145 -59.5t59 -145.5v-1024q0 -86 -59 -145.5t-145 -59.5h-410zM227 102h308q43 0 72.5 30t29.5 73v1024q0 43 -29.5 72.5t-72.5 29.5h-308v-1229z" />
<glyph unicode="E" horiz-adv-x="710" d="M125 0v1434h512v-103h-410v-522h308v-102h-308v-605h410v-102h-512z" />
<glyph unicode="F" horiz-adv-x="710" d="M125 0v1434h512v-103h-410v-522h308v-102h-308v-707h-102z" />
<glyph unicode="G" d="M125 205v1024q0 86 59.5 145.5t145.5 59.5h205q86 0 145 -59.5t59 -145.5v-205h-102v205q0 43 -29.5 72.5t-72.5 29.5h-205q-41 0 -72 -29.5t-31 -72.5v-1024q0 -43 31 -73t72 -30h205q43 0 72.5 30t29.5 73v399h-205v103h307v-502q0 -86 -59 -145.5t-145 -59.5h-205 q-86 0 -145.5 59.5t-59.5 145.5z" />
<glyph unicode="H" d="M125 0v1434h102v-625h410v625h102v-1434h-102v707h-410v-707h-102z" />
<glyph unicode="I" horiz-adv-x="352" d="M125 0v1434h102v-1434h-102z" />
<glyph unicode="J" horiz-adv-x="751" d="M63 205v205h103v-205q0 -43 29.5 -73t72.5 -30h154q43 0 72.5 30t29.5 73v1229h103v-1229q0 -86 -59.5 -145.5t-145.5 -59.5h-154q-86 0 -145.5 59.5t-59.5 145.5z" />
<glyph unicode="K" horiz-adv-x="866" d="M125 0v1434h102v-938l475 938h115l-344 -658l369 -776h-123l-303 670l-189 -361v-309h-102z" />
<glyph unicode="L" horiz-adv-x="710" d="M125 0v1434h102v-1332h410v-102h-512z" />
<glyph unicode="M" horiz-adv-x="1105" d="M125 0v1434h156l272 -998l272 998h156v-1434h-102v1268l-293 -1063h-66l-293 1063v-1268h-102z" />
<glyph unicode="N" d="M125 0v1434h119l393 -1100v1100h102v-1434h-77l-435 1194v-1194h-102z" />
<glyph unicode="O" d="M125 205v1024q0 86 59.5 145.5t145.5 59.5h205q86 0 145 -59.5t59 -145.5v-1024q0 -86 -59 -145.5t-145 -59.5h-205q-86 0 -145.5 59.5t-59.5 145.5zM227 205q0 -43 31 -73t72 -30h205q43 0 72.5 30t29.5 73v1024q0 43 -29.5 72.5t-72.5 29.5h-205q-41 0 -72 -29.5 t-31 -72.5v-1024z" />
<glyph unicode="P" horiz-adv-x="813" d="M125 0v1434h410q86 0 145 -59.5t59 -145.5v-451q0 -43 -16 -79.5t-44 -64.5t-64.5 -44.5t-79.5 -16.5h-308v-573h-102zM227 676h308q43 0 72.5 29.5t29.5 72.5v451q0 43 -29.5 72.5t-72.5 29.5h-308v-655z" />
<glyph unicode="Q" d="M125 205v1024q0 86 59.5 145.5t145.5 59.5h205q86 0 145 -59.5t59 -145.5v-1024q0 -86 -59 -145.5t-145 -59.5h-52v-102q0 -43 31 -73t72 -30v-102q-86 0 -145.5 59.5t-59.5 145.5v102h-51q-86 0 -145.5 59.5t-59.5 145.5zM227 205q0 -43 31 -73t72 -30h205q43 0 72.5 30 t29.5 73v1024q0 43 -29.5 72.5t-72.5 29.5h-205q-41 0 -72 -29.5t-31 -72.5v-1024z" />
<glyph unicode="R" d="M125 0v1434h410q43 0 79.5 -16.5t64.5 -44t44 -64.5t16 -80v-400q0 -72 -43 -126t-108 -72l151 -631h-114l-136 625h-262v-625h-102zM227 727h308q43 0 72.5 29.5t29.5 72.5v400q0 43 -29.5 72.5t-72.5 29.5h-308v-604z" />
<glyph unicode="S" d="M125 205v205h102v-205q0 -43 31 -73t72 -30h205q43 0 72.5 30t29.5 73v180q0 80 -49 127l-379 377q-39 37 -61.5 89t-22.5 118v133q0 86 59.5 145.5t145.5 59.5h205q86 0 145 -59.5t59 -145.5v-205h-102v205q0 43 -29.5 72.5t-72.5 29.5h-205q-41 0 -72 -29.5t-31 -72.5 v-133q0 -82 49 -127l379 -377q39 -37 61.5 -89t22.5 -118v-180q0 -86 -59 -145.5t-145 -59.5h-205q-86 0 -145.5 59.5t-59.5 145.5z" />
<glyph unicode="T" horiz-adv-x="761" d="M74 1331v103h614v-103h-256v-1331h-102v1331h-256z" />
<glyph unicode="U" d="M125 205v1229h102v-1229q0 -43 31 -73t72 -30h205q43 0 72.5 30t29.5 73v1229h102v-1229q0 -86 -59 -145.5t-145 -59.5h-205q-86 0 -145.5 59.5t-59.5 145.5z" />
<glyph unicode="V" horiz-adv-x="866" d="M47 1434h109l274 -1317l277 1317h106l-307 -1434h-152z" />
<glyph unicode="W" horiz-adv-x="1282" d="M47 1434h103l217 -1287l231 1287h88l232 -1287l219 1287h98l-246 -1434h-149l-199 1139l-199 -1139h-149z" />
<glyph unicode="X" horiz-adv-x="866" d="M27 0l342 750l-310 684h117l254 -582l256 582h115l-307 -684l340 -750h-123l-281 647l-278 -647h-125z" />
<glyph unicode="Y" horiz-adv-x="763" d="M23 1434h110l248 -758l250 758h108l-309 -881v-553h-102v553z" />
<glyph unicode="Z" horiz-adv-x="778" d="M74 0v102l506 1229h-490v103h598v-103l-508 -1229h525v-102h-631z" />
<glyph unicode="[" horiz-adv-x="468" d="M123 -309v1947h285v-67h-220v-1813h220v-67h-285z" />
<glyph unicode="\" horiz-adv-x="651" d="M57 1638h64l475 -1947h-66z" />
<glyph unicode="]" horiz-adv-x="468" d="M61 -242h220v1813h-220v67h285v-1947h-285v67z" />
<glyph unicode="^" horiz-adv-x="569" d="M47 1118l238 238l237 -238l-53 -53l-184 184l-185 -184z" />
<glyph unicode="_" horiz-adv-x="921" d="M0 0h922v-92h-922v92z" />
<glyph unicode="`" horiz-adv-x="772" d="M231 1321l54 53l256 -256l-54 -53z" />
<glyph unicode="a" horiz-adv-x="741" d="M94 184v181q0 82 53.5 133t131.5 51h124q47 0 79 -21.5t42 -56.5v307q0 39 -26.5 65.5t-65.5 26.5h-268v93h268q39 0 73 -14.5t58.5 -40t38.5 -59.5t14 -71v-778h-92v78q-10 -35 -41.5 -56.5t-79.5 -21.5h-120q-37 0 -72 14.5t-60.5 40t-41 59t-15.5 70.5zM188 184 q0 -39 27 -65.5t66 -26.5h151q39 0 65.5 26.5t26.5 65.5v181q0 37 -26.5 64.5t-65.5 27.5h-151q-39 0 -66 -28t-27 -64v-181z" />
<glyph unicode="b" horiz-adv-x="774" d="M125 0v1434h92v-564q31 92 148 93h98q39 0 72.5 -14.5t58 -40t39 -59.5t14.5 -71v-594q0 -37 -14.5 -70.5t-39 -59t-58 -40t-72.5 -14.5h-98q-115 0 -148 92v-92h-92zM217 184q0 -39 27.5 -65.5t64.5 -26.5h154q39 0 65.5 26.5t26.5 65.5v594q0 39 -26.5 65.5t-65.5 26.5 h-154q-37 0 -64.5 -26.5t-27.5 -65.5v-594z" />
<glyph unicode="c" horiz-adv-x="774" d="M125 184v594q0 76 54 130.5t130 54.5h154q39 0 72.5 -14.5t58 -40t39 -59.5t14.5 -71v-137h-92v137q0 39 -26.5 65.5t-65.5 26.5h-154q-37 0 -64.5 -26.5t-27.5 -65.5v-594q0 -39 27.5 -65.5t64.5 -26.5h154q39 0 65.5 26.5t26.5 65.5v140h92v-140q0 -37 -14.5 -70.5 t-39 -59t-58 -40t-72.5 -14.5h-154q-76 0 -130 54.5t-54 129.5z" />
<glyph unicode="d" horiz-adv-x="774" d="M125 184v594q0 76 54 130.5t130 54.5h99q119 0 147 -93v564h92v-1434h-92v92q-31 -92 -147 -92h-99q-76 0 -130 54.5t-54 129.5zM217 184q0 -39 27.5 -65.5t64.5 -26.5h154q39 0 65.5 26.5t26.5 65.5v594q0 39 -26.5 65.5t-65.5 26.5h-154q-37 0 -64.5 -26.5t-27.5 -65.5 v-594z" />
<glyph unicode="e" horiz-adv-x="774" d="M125 184v594q0 76 54 130.5t130 54.5h154q39 0 72.5 -14.5t58 -40t39 -59.5t14.5 -71v-362h-430v-232q0 -39 27.5 -65.5t64.5 -26.5h271v-92h-271q-76 0 -130 54.5t-54 129.5zM217 508h338v270q0 39 -26.5 65.5t-65.5 26.5h-154q-37 0 -64.5 -26.5t-27.5 -65.5v-270z" />
<glyph unicode="f" horiz-adv-x="530" d="M37 870v93h143v286q0 37 14.5 71t39 59.5t58.5 40t73 14.5h92v-93h-92q-39 0 -66 -26.5t-27 -65.5v-286h185v-93h-185v-870h-92v870h-143z" />
<glyph unicode="g" horiz-adv-x="774" d="M125 184v594q0 76 54 130.5t130 54.5h99q119 0 147 -93v93h92v-1086q0 -37 -14.5 -70.5t-40 -58t-59 -40t-70.5 -15.5h-223v92h223q39 0 65.5 26.5t26.5 65.5v215q-31 -92 -147 -92h-99q-76 0 -130 54.5t-54 129.5zM217 184q0 -39 27.5 -65.5t64.5 -26.5h154 q39 0 65.5 26.5t26.5 65.5v594q0 39 -26.5 65.5t-65.5 26.5h-154q-37 0 -64.5 -26.5t-27.5 -65.5v-594z" />
<glyph unicode="h" horiz-adv-x="774" d="M125 0v1434h92v-564q31 92 148 93h98q78 0 131 -53.5t53 -131.5v-778h-92v778q0 39 -26.5 65.5t-65.5 26.5h-154q-37 0 -64.5 -26.5t-27.5 -65.5v-778h-92z" />
<glyph unicode="i" horiz-adv-x="344" d="M106 1245q0 29 19.5 48.5t48.5 19.5t48.5 -19.5t19.5 -48.5t-19.5 -48t-48.5 -19t-48.5 19.5t-19.5 47.5zM125 0v963h92v-963h-92z" />
<glyph unicode="j" horiz-adv-x="344" d="M-59 -215h92q39 0 65.5 26.5t26.5 65.5v1086h92v-1086q0 -37 -14.5 -70.5t-40 -58t-59 -40t-70.5 -15.5h-92v92zM102 1245q0 29 20.5 48.5t49.5 19.5t48.5 -19.5t19.5 -48.5t-19.5 -48t-48.5 -19t-49.5 19.5t-20.5 47.5z" />
<glyph unicode="k" horiz-adv-x="690" d="M125 0v1434h92v-1082l338 611h104l-229 -392l238 -571h-113l-182 471l-156 -268v-203h-92z" />
<glyph unicode="l" horiz-adv-x="344" d="M125 0v1434h92v-1434h-92z" />
<glyph unicode="m" horiz-adv-x="1140" d="M125 0v963h92v-93q31 92 148 93h84q125 0 147 -95q23 94 147 95h88q78 0 131.5 -53.5t53.5 -131.5v-778h-92v778q0 39 -27 65.5t-66 26.5h-122q-37 0 -65 -26.5t-28 -65.5v-778h-92v778q0 39 -26.5 65.5t-65.5 26.5h-123q-37 0 -64.5 -26.5t-27.5 -65.5v-778h-92z" />
<glyph unicode="n" horiz-adv-x="774" d="M125 0v963h92v-93q31 92 148 93h98q78 0 131 -53.5t53 -131.5v-778h-92v778q0 39 -26.5 65.5t-65.5 26.5h-154q-37 0 -64.5 -26.5t-27.5 -65.5v-778h-92z" />
<glyph unicode="o" horiz-adv-x="772" d="M125 184v594q0 39 14.5 73t40 58.5t59 39t70.5 14.5h154q78 0 131 -53.5t53 -131.5v-594q0 -37 -14.5 -70.5t-39 -59t-58 -40t-72.5 -14.5h-154q-76 0 -130 54.5t-54 129.5zM217 184q0 -39 27.5 -65.5t64.5 -26.5h154q39 0 65.5 26.5t26.5 65.5v594q0 39 -26.5 65.5 t-65.5 26.5h-154q-37 0 -64.5 -26.5t-27.5 -65.5v-594z" />
<glyph unicode="p" horiz-adv-x="774" d="M125 -307v1270h92v-93q31 92 148 93h98q76 0 130 -54.5t54 -130.5v-594q0 -76 -54 -130t-130 -54h-98q-115 0 -148 92v-399h-92zM217 184q0 -39 27.5 -65.5t64.5 -26.5h154q39 0 65.5 26.5t26.5 65.5v594q0 39 -26.5 65.5t-65.5 26.5h-154q-37 0 -64.5 -26.5t-27.5 -65.5 v-594z" />
<glyph unicode="q" horiz-adv-x="772" d="M125 184v594q0 76 54 130.5t130 54.5h99q119 0 147 -93v93h92v-1270h-92v399q-31 -92 -147 -92h-99q-76 0 -130 54.5t-54 129.5zM217 184q0 -39 27.5 -65.5t64.5 -26.5h154q39 0 65.5 26.5t26.5 65.5v594q0 39 -26.5 65.5t-65.5 26.5h-154q-37 0 -64.5 -26.5t-27.5 -65.5 v-594z" />
<glyph unicode="r" horiz-adv-x="493" d="M125 0v963h92v-93q31 92 148 93h98v-93h-154q-37 0 -64.5 -26.5t-27.5 -65.5v-778h-92z" />
<glyph unicode="s" horiz-adv-x="772" d="M125 184v99h92v-99q0 -39 27.5 -65.5t64.5 -26.5h154q39 0 65.5 26.5t26.5 65.5v107q0 59 -57 86l-262 127q-49 25 -80 64.5t-31 93.5v116q0 76 54 130.5t130 54.5h154q39 0 72.5 -14.5t58 -40t39 -59.5t14.5 -71v-96h-92v96q0 39 -26.5 65.5t-65.5 26.5h-154 q-37 0 -64.5 -26.5t-27.5 -65.5v-108q0 -59 57 -86l263 -127q49 -25 79.5 -65t30.5 -93v-115q0 -37 -14.5 -70.5t-39 -59t-58 -40t-72.5 -14.5h-154q-76 0 -130 54.5t-54 129.5z" />
<glyph unicode="t" horiz-adv-x="530" d="M37 870v93h143v286h92v-286h185v-93h-185v-686q0 -39 27 -65.5t66 -26.5h92v-92h-92q-76 0 -130.5 54.5t-54.5 129.5v686h-143z" />
<glyph unicode="u" horiz-adv-x="774" d="M125 184v779h92v-779q0 -39 27.5 -65.5t64.5 -26.5h154q39 0 65.5 26.5t26.5 65.5v779h92v-963h-92v92q-31 -92 -147 -92h-99q-76 0 -130 54.5t-54 129.5z" />
<glyph unicode="v" horiz-adv-x="722" d="M47 963h96l219 -885l218 885h96l-242 -963h-145z" />
<glyph unicode="w" horiz-adv-x="1042" d="M47 963h96l174 -850l177 850h55l178 -850l172 850h96l-200 -963h-117l-156 719l-157 -719h-117z" />
<glyph unicode="x" horiz-adv-x="722" d="M47 0l262 475l-262 488h113l202 -410l199 410h115l-260 -488l260 -475h-115l-199 406l-202 -406h-113z" />
<glyph unicode="y" horiz-adv-x="722" d="M47 963h96l219 -844l218 844h96l-357 -1270h-104l94 307z" />
<glyph unicode="z" horiz-adv-x="669" d="M74 0v92l401 778h-385v93h494v-93l-400 -778h412v-92h-522z" />
<glyph unicode="{" horiz-adv-x="497" d="M41 633v65h72q59 0 59 60v749q0 53 38 92t91 39h156v-67h-156q-63 0 -63 -64v-735q0 -45 -22.5 -71.5t-53.5 -34.5q31 -8 53.5 -36t22.5 -73v-735q0 -63 63 -64h156v-67h-156q-53 0 -91 39t-38 92v751q0 59 -59 60h-72z" />
<glyph unicode="|" horiz-adv-x="253" d="M102 -410v2048h45v-2048h-45z" />
<glyph unicode="}" horiz-adv-x="497" d="M41 -242h156q63 0 63 64v735q0 45 22.5 71.5t53.5 35.5q-31 8 -53.5 35.5t-22.5 72.5v735q0 63 -63 64h-156v67h156q53 0 91 -38.5t38 -92.5v-751q0 -59 59 -60h72v-65h-72q-59 0 -59 -60v-749q0 -53 -38 -92t-91 -39h-156v67z" />
<glyph unicode="~" horiz-adv-x="641" d="M47 1159l129 129q20 20 53 21q33 0 54 -21l131 -129l127 129l53 -53l-129 -129q-23 -23 -53 -23q-31 0 -54 23l-131 129l-129 -127z" />
<glyph unicode="&#xa1;" horiz-adv-x="454" d="M145 901q0 35 25 58.5t57 23.5q35 0 58.5 -23.5t23.5 -58.5q0 -33 -23.5 -57.5t-58.5 -24.5q-33 0 -57.5 24.5t-24.5 57.5zM176 -471v1075h103v-1075h-103z" />
<glyph unicode="&#xa2;" d="M125 389v655q0 86 59.5 145.5t145.5 59.5h61v185h82v-185h62q86 0 145 -59.5t59 -145.5v-149h-102v149q0 43 -29.5 73t-72.5 30h-205q-41 0 -72 -30t-31 -73v-655q0 -43 30 -72.5t73 -29.5h205q41 0 71.5 29.5t30.5 72.5v156h102v-156q0 -86 -59 -145.5t-145 -59.5h-62 v-184h-82v184h-61q-86 0 -145.5 59.5t-59.5 145.5z" />
<glyph unicode="&#xa3;" horiz-adv-x="907" d="M78 0v102h108v605h-102v102h102v420q0 43 15.5 80t43 64.5t65.5 44t81 16.5h101q43 0 79.5 -16.5t64.5 -44t44 -64.5t16 -80v-154h-100v154q0 43 -30.5 72.5t-71.5 29.5h-105q-41 0 -71.5 -29.5t-30.5 -72.5v-420h282v-102h-282v-605h309q41 0 71.5 30t30.5 73v153h101 v-153q0 -43 -16.5 -80t-44 -64.5t-64.5 -44t-80 -16.5h-516z" />
<glyph unicode="&#xa4;" horiz-adv-x="1169" d="M158 1061l65 65l189 -190q47 27 96 27h154q27 0 49 -7.5t45 -17.5l190 190l66 -65l-191 -191q10 -23 17.5 -45t7.5 -49v-153q0 -49 -27 -97l189 -186l-66 -66l-188 189q-41 -25 -92 -25h-154q-51 0 -94 25l-187 -186l-65 65l186 186q-25 43 -24 95v153q0 51 24 92z M416 625q0 -39 27.5 -66t64.5 -27h154q39 0 65.5 27t26.5 66v153q0 39 -27 65.5t-65 26.5h-154q-37 0 -64.5 -26.5t-27.5 -65.5v-153z" />
<glyph unicode="&#xa5;" horiz-adv-x="856" d="M27 348v82h348v123l-58 164h-290v82h262l-219 635h110l248 -758l250 758h108l-223 -635h266v-82h-294l-58 -164v-123h352v-82h-352v-348h-102v348h-348z" />
<glyph unicode="&#xa6;" horiz-adv-x="253" d="M102 410h45v-820h-45v820zM102 819v819h45v-819h-45z" />
<glyph unicode="&#xa7;" horiz-adv-x="772" d="M125 692v86q0 59 31.5 105.5t85.5 66.5q-70 53 -70 168v131q0 78 53.5 131.5t130.5 53.5h60q78 0 131 -53.5t53 -131.5v-98h-92v98q0 39 -26.5 65.5t-65.5 26.5h-60q-39 0 -65.5 -26.5t-26.5 -65.5v-127q0 -29 16.5 -52t41.5 -34l157 -80q33 -16 63.5 -34.5t53 -40 t37 -49t14.5 -64.5v-113q0 -53 -26.5 -96t-71.5 -65q29 -23 40 -60t11 -90v-160q0 -78 -53 -131t-131 -53h-60q-78 0 -131 53t-53 131v97h92v-97q0 -39 26.5 -65.5t65.5 -26.5h60q39 0 65.5 26.5t26.5 65.5v154q0 29 -13.5 51.5t-37.5 32.5l-189 88q-61 29 -102 73t-41 109z M217 715q0 -29 16.5 -51.5t40.5 -34.5l199 -99q12 -6 25 -6q23 0 40 16.5t17 43.5v155q0 29 -15.5 51.5t-39.5 34.5l-199 99q-12 6 -25 6q-23 0 -41 -16.5t-18 -43.5v-155z" />
<glyph unicode="&#xa8;" horiz-adv-x="772" d="M188 1245q0 29 19.5 48.5t48.5 19.5t48.5 -19.5t19.5 -48.5t-19.5 -48t-48.5 -19t-48.5 19.5t-19.5 47.5zM446 1245q0 29 19.5 48.5t48.5 19.5t48.5 -19.5t19.5 -48.5t-19.5 -48t-48.5 -19t-48.5 19.5t-19.5 47.5z" />
<glyph unicode="&#xa9;" horiz-adv-x="1632" d="M82 717q0 152 57.5 286t156.5 233t233.5 157.5t285.5 58.5q152 0 286 -58.5t233.5 -157.5t157.5 -233t58 -286t-58 -286t-157.5 -234.5t-233.5 -157.5t-286 -57t-286 57t-233 157.5t-156.5 234.5t-57.5 286zM119 717q0 -145 55 -271.5t149.5 -221.5t221.5 -149.5 t270 -54.5t270 54.5t222.5 149.5t149.5 221.5t54 271.5q0 143 -54 270t-149.5 222.5t-222.5 149.5t-270 54t-270 -54t-221.5 -149.5t-149.5 -222.5t-55 -270zM528 430v574q0 53 38 92t93 39h316q55 0 93 -39t38 -92v-99h-66v107q0 55 -57 55h-332q-57 0 -57 -55v-590 q0 -55 57 -55h332q57 0 57 55v106h66v-98q0 -53 -38 -92t-93 -39h-316q-55 0 -93 39t-38 92z" />
<glyph unicode="&#xaa;" horiz-adv-x="720" d="M125 293v86h471v-86h-471zM125 758v129q0 86 54 135t130 49h80q29 -2 53 -10q20 -8 40 -23.5t28 -44.5v256q0 39 -29.5 69t-68.5 30h-195v86h195q78 0 131 -53.5t53 -131.5v-676h-86v78q-8 -29 -27.5 -44t-40.5 -23q-25 -8 -53 -11h-76q-37 0 -71.5 14.5t-60 40t-41 59.5 t-15.5 71zM213 758q0 -39 29.5 -69t68.5 -30h101q39 0 68.5 30t29.5 69v129q0 39 -29.5 68.5t-68.5 29.5h-101q-39 0 -68.5 -29.5t-29.5 -68.5v-129z" />
<glyph unicode="&#xab;" horiz-adv-x="739" d="M78 481l237 238l54 -53l-185 -185l185 -184l-54 -53zM369 481l237 238l56 -53l-185 -185l185 -184l-56 -53z" />
<glyph unicode="&#xac;" horiz-adv-x="966" d="M74 621v92h819v-461h-92v369h-727z" />
<glyph unicode="&#xad;" horiz-adv-x="579" d="M74 434v92h432v-92h-432z" />
<glyph unicode="&#xae;" horiz-adv-x="897" d="M82 1083q0 76 28.5 143.5t79 118t117 79t142.5 28.5t142 -28.5t116.5 -79t79 -118t28.5 -143.5t-28.5 -142.5t-79 -116.5t-117 -78.5t-141.5 -28.5q-76 0 -142.5 28.5t-117 78.5t-79 117t-28.5 142zM113 1083q0 -70 26.5 -130t72.5 -105t106.5 -71.5t130.5 -26.5 t131 26.5t106 71.5t71.5 105t26.5 130t-26.5 131.5t-71.5 106.5t-106.5 71.5t-130.5 26.5q-70 0 -130.5 -26.5t-106.5 -71.5t-72.5 -106.5t-26.5 -131.5zM305 881v407h232q57 0 57 -57v-137q0 -57 -57 -58h-35l92 -155h-51l-92 155h-101v-155h-45zM350 1081h199v162h-199 v-162z" />
<glyph unicode="&#xaf;" horiz-adv-x="772" d="M195 1206v78h385v-78h-385z" />
<glyph unicode="&#xb0;" horiz-adv-x="495" d="M63 1274q0 78 54.5 132t132.5 54q37 0 70.5 -14t58 -40t39 -59.5t14.5 -72.5q0 -76 -53 -129t-129 -53q-39 0 -73 14t-59.5 38.5t-40 58.5t-14.5 71zM115 1274q0 -55 39 -94t96 -39q55 0 94 39t39 94q0 57 -39 96t-94 39q-57 0 -96 -39t-39 -96z" />
<glyph unicode="&#xb1;" horiz-adv-x="966" d="M74 0v92h358v342h-358v92h358v365h92v-365h369v-92h-369v-342h369v-92h-819z" />
<glyph unicode="&#xb2;" horiz-adv-x="618" d="M115 573v175q0 31 9 54t26 46l262 336q10 12 10 41v75q0 51 -51 52h-123q-51 0 -51 -52v-110h-82v110q0 59 36.5 96.5t96.5 37.5h123q59 0 96 -37t37 -97v-75q0 -31 -9.5 -54.5t-25.5 -46.5l-262 -336q-10 -12 -10 -40v-93h297v-82h-379z" />
<glyph unicode="&#xb3;" horiz-adv-x="618" d="M115 707v81h82v-81q0 -51 51 -52h123q51 0 51 52v229q0 51 -51 51h-154v82h154q51 0 51 51v180q0 51 -51 52h-123q-51 0 -51 -52v-81h-82v81q0 59 36.5 96.5t96.5 37.5h123q59 0 96 -37t37 -97v-178q0 -35 -18.5 -60.5t-53.5 -35.5q29 -8 50.5 -30.5t21.5 -63.5v-225 q0 -59 -37 -96.5t-96 -37.5h-123q-59 0 -96 37t-37 97z" />
<glyph unicode="&#xb4;" horiz-adv-x="772" d="M231 1118l256 256l54 -53l-256 -256z" />
<glyph unicode="&#xb5;" horiz-adv-x="774" d="M125 -307v1270h92v-779q0 -39 26.5 -65.5t65.5 -26.5h154q39 0 65.5 26.5t26.5 65.5v779h92v-963h-92v92q-31 -92 -147 -92h-43q-117 0 -148 92v-399h-92z" />
<glyph unicode="&#xb6;" horiz-adv-x="894" d="M51 1087q0 72 27.5 134.5t75 109.5t111 75t134.5 28h445v-78h-160v-1665h-78v1665h-129v-1665h-78v1048q-72 0 -135 28t-110.5 75t-75 110.5t-27.5 134.5z" />
<glyph unicode="&#xb7;" horiz-adv-x="372" d="M104 496q0 33 25 57.5t57 24.5q35 0 58.5 -24.5t23.5 -57.5t-23.5 -57.5t-58.5 -24.5q-33 0 -57.5 24.5t-24.5 57.5z" />
<glyph unicode="&#xb8;" horiz-adv-x="772" d="M258 -240h176v80h-125v160h78v-82h125v-154q0 -33 -23.5 -57t-56.5 -24h-174v77z" />
<glyph unicode="&#xb9;" horiz-adv-x="509" d="M86 573v82h133v697h-133v82h215v-779h123v-82h-338z" />
<glyph unicode="&#xba;" horiz-adv-x="720" d="M125 293v86h471v-86h-471zM125 758v491q0 78 53 131.5t131 53.5h103q78 0 131 -53.5t53 -131.5v-491q0 -78 -53.5 -131.5t-130.5 -53.5h-103q-78 0 -131 53.5t-53 131.5zM211 758q0 -39 29.5 -69t68.5 -30h103q39 0 68.5 30t29.5 69v491q0 39 -29.5 69t-68.5 30h-103 q-39 0 -68.5 -30t-29.5 -69v-491z" />
<glyph unicode="&#xbb;" horiz-adv-x="739" d="M70 297l184 184l-184 185l53 53l237 -238l-237 -237zM360 297l185 184l-185 185l56 53l237 -238l-237 -237z" />
<glyph unicode="&#xbc;" horiz-adv-x="1171" d="M86 573v82h133v697h-133v82h215v-779h123v-82h-338zM305 0l475 1434h86l-475 -1434h-86zM666 205v74l276 581h82v-573h62v-82h-62v-205h-82v205h-276zM752 287h190v418z" />
<glyph unicode="&#xbd;" horiz-adv-x="1280" d="M86 573v82h133v697h-133v82h215v-779h123v-82h-338zM305 0l475 1434h86l-475 -1434h-86zM777 0v174q0 31 9 54.5t26 45.5l262 336q10 12 10 41v76q0 51 -51 51h-123q-51 0 -51 -51v-111h-82v111q0 59 36.5 96t96.5 37h123q59 0 96 -37t37 -96v-76q0 -31 -9.5 -54.5 t-25.5 -45.5l-262 -336q-10 -12 -10 -41v-92h297v-82h-379z" />
<glyph unicode="&#xbe;" horiz-adv-x="1280" d="M115 707v81h82v-81q0 -51 51 -52h123q51 0 51 52v229q0 51 -51 51h-154v82h154q51 0 51 51v180q0 51 -51 52h-123q-51 0 -51 -52v-81h-82v81q0 59 36.5 96.5t96.5 37.5h123q59 0 96 -37t37 -97v-178q0 -35 -18.5 -60.5t-53.5 -35.5q29 -8 50.5 -30.5t21.5 -63.5v-225 q0 -59 -37 -96.5t-96 -37.5h-123q-59 0 -96 37t-37 97zM414 0l475 1434h86l-475 -1434h-86zM774 205v74l276 581h82v-573h62v-82h-62v-205h-82v205h-276zM860 287h190v418z" />
<glyph unicode="&#xbf;" d="M125 -119q0 49 25.5 97.5t74.5 99.5l213 215q35 35 35 84q0 45 -29 74l-106 110l61 64l111 -107q55 -53 55 -139q0 -94 -63 -156l-230 -229q-39 -39 -45 -98v-162q0 -43 31 -73t72 -30h205q43 0 72.5 30t29.5 73v153h102v-153q0 -86 -59 -145.5t-145 -59.5h-205 q-86 0 -145.5 59.5t-59.5 145.5v147zM348 901q0 35 24.5 58.5t57.5 23.5q35 0 58.5 -23.5t23.5 -58.5q0 -33 -23.5 -57.5t-58.5 -24.5q-33 0 -57.5 24.5t-24.5 57.5z" />
<glyph unicode="&#xc0;" horiz-adv-x="876" d="M53 0l307 1434h156l307 -1434h-114l-50 256h-440l-51 -256h-115zM242 358h395l-195 951zM284 1792l54 53l256 -256l-54 -53z" />
<glyph unicode="&#xc1;" horiz-adv-x="876" d="M53 0l307 1434h156l307 -1434h-114l-50 256h-440l-51 -256h-115zM242 358h395l-195 951zM284 1589l256 256l54 -53l-256 -256z" />
<glyph unicode="&#xc2;" horiz-adv-x="876" d="M53 0l307 1434h156l307 -1434h-114l-50 256h-440l-51 -256h-115zM201 1624l237 238l238 -238l-53 -53l-185 184l-184 -184zM242 358h395l-195 951z" />
<glyph unicode="&#xc3;" horiz-adv-x="876" d="M53 0l307 1434h156l307 -1434h-114l-50 256h-440l-51 -256h-115zM166 1679l129 129q20 20 53 21q33 0 53 -21l131 -129l127 129l53 -53l-129 -129q-23 -23 -53 -22q-31 0 -53 22l-131 129l-129 -127zM242 358h395l-195 951z" />
<glyph unicode="&#xc4;" horiz-adv-x="876" d="M53 0l307 1434h156l307 -1434h-114l-50 256h-440l-51 -256h-115zM241 1716q0 29 19.5 48.5t48.5 19.5t48.5 -19.5t19.5 -48.5t-19.5 -48t-48.5 -19t-48.5 19.5t-19.5 47.5zM242 358h395l-195 951zM499 1716q0 29 19.5 48.5t48.5 19.5t48.5 -19.5t19.5 -48.5t-19.5 -48 t-48.5 -19t-48.5 19.5t-19.5 47.5z" />
<glyph unicode="&#xc5;" horiz-adv-x="876" d="M53 0l307 1434h156l307 -1434h-114l-50 256h-440l-51 -256h-115zM242 358h395l-195 951zM293 1694q0 59 44 102t103 43t103 -43q43 -43 43 -102q0 -61 -42 -105q-42 -43 -104 -43q-61 0 -104 43t-43 105zM344 1694q0 -41 28 -70t68 -29q41 0 70 29t29 70t-29 68 q-29 28 -70 28t-68 -28q-28 -28 -28 -68z" />
<glyph unicode="&#xc6;" horiz-adv-x="1300" d="M37 0l629 1434h559v-103h-410v-522h307v-102h-307v-605h410v-102h-512v256h-453l-113 -256h-110zM305 358h408v940z" />
<glyph unicode="&#xc7;" horiz-adv-x="866" d="M125 205v1024q0 86 59.5 145.5t145.5 59.5h205q86 0 145 -59.5t59 -145.5v-205h-102v205q0 43 -29.5 72.5t-72.5 29.5h-205q-41 0 -72 -29.5t-31 -72.5v-1024q0 -43 31 -73t72 -30h205q43 0 72.5 30t29.5 73v205h102v-205q0 -86 -59 -145.5t-145 -59.5h-101v-82h125v-154 q0 -33 -23.5 -57t-56.5 -24h-174v77h176v80h-125v160h-26q-86 0 -145.5 59.5t-59.5 145.5z" />
<glyph unicode="&#xc8;" horiz-adv-x="710" d="M125 0v1434h512v-103h-410v-522h308v-102h-308v-605h410v-102h-512zM229 1792l54 53l256 -256l-54 -53z" />
<glyph unicode="&#xc9;" horiz-adv-x="710" d="M125 0v1434h512v-103h-410v-522h308v-102h-308v-605h410v-102h-512zM229 1589l256 256l54 -53l-256 -256z" />
<glyph unicode="&#xca;" horiz-adv-x="710" d="M125 0v1434h512v-103h-410v-522h308v-102h-308v-605h410v-102h-512zM145 1624l238 238l238 -238l-54 -53l-184 184l-184 -184z" />
<glyph unicode="&#xcb;" horiz-adv-x="710" d="M125 0v1434h512v-103h-410v-522h308v-102h-308v-605h410v-102h-512zM186 1716q0 29 19.5 48.5t48.5 19.5t48.5 -19.5t19.5 -48.5t-19.5 -48t-48.5 -19t-48.5 19.5t-19.5 47.5zM444 1716q0 29 19.5 48.5t48.5 19.5t48.5 -19.5t19.5 -48.5t-19.5 -48t-48.5 -19t-48.5 19.5 t-19.5 47.5z" />
<glyph unicode="&#xcc;" horiz-adv-x="352" d="M24 1792l54 53l256 -256l-54 -53zM125 0v1434h102v-1434h-102z" />
<glyph unicode="&#xcd;" horiz-adv-x="352" d="M24 1589l256 256l54 -53l-256 -256zM125 0v1434h102v-1434h-102z" />
<glyph unicode="&#xce;" horiz-adv-x="352" d="M-59 1624l237 238l238 -238l-54 -53l-184 184l-184 -184zM125 0v1434h102v-1434h-102z" />
<glyph unicode="&#xcf;" horiz-adv-x="352" d="M-19 1716q0 29 19.5 48.5t48.5 19.5t48.5 -19.5t19.5 -48.5t-19.5 -48t-48.5 -19t-48.5 19.5t-19.5 47.5zM125 0v1434h102v-1434h-102zM239 1716q0 29 19.5 48.5t48.5 19.5t48.5 -19.5t19.5 -48.5t-19.5 -48t-48.5 -19t-48.5 19.5t-19.5 47.5z" />
<glyph unicode="&#xd0;" horiz-adv-x="866" d="M-16 719v78h141v637h410q86 0 145 -59.5t59 -145.5v-1024q0 -86 -59 -145.5t-145 -59.5h-410v719h-141zM227 102h308q43 0 72.5 30t29.5 73v1024q0 43 -29.5 72.5t-72.5 29.5h-308v-534h142v-78h-142v-617z" />
<glyph unicode="&#xd1;" d="M125 0v1434h119l393 -1100v1100h102v-1434h-77l-435 1194v-1194h-102zM160 1679l129 129q20 20 53 21q33 0 53 -21l131 -129l127 129l53 -53l-129 -129q-23 -23 -53 -22q-31 0 -53 22l-131 129l-129 -127z" />
<glyph unicode="&#xd2;" d="M125 205v1024q0 86 59.5 145.5t145.5 59.5h205q86 0 145 -59.5t59 -145.5v-1024q0 -86 -59 -145.5t-145 -59.5h-205q-86 0 -145.5 59.5t-59.5 145.5zM227 205q0 -43 31 -73t72 -30h205q43 0 72.5 30t29.5 73v1024q0 43 -29.5 72.5t-72.5 29.5h-205q-41 0 -72 -29.5 t-31 -72.5v-1024zM278 1792l54 53l256 -256l-54 -53z" />
<glyph unicode="&#xd3;" d="M125 205v1024q0 86 59.5 145.5t145.5 59.5h205q86 0 145 -59.5t59 -145.5v-1024q0 -86 -59 -145.5t-145 -59.5h-205q-86 0 -145.5 59.5t-59.5 145.5zM227 205q0 -43 31 -73t72 -30h205q43 0 72.5 30t29.5 73v1024q0 43 -29.5 72.5t-72.5 29.5h-205q-41 0 -72 -29.5 t-31 -72.5v-1024zM278 1589l256 256l54 -53l-256 -256z" />
<glyph unicode="&#xd4;" d="M125 205v1024q0 86 59.5 145.5t145.5 59.5h205q86 0 145 -59.5t59 -145.5v-1024q0 -86 -59 -145.5t-145 -59.5h-205q-86 0 -145.5 59.5t-59.5 145.5zM195 1624l237 238l238 -238l-54 -53l-184 184l-184 -184zM227 205q0 -43 31 -73t72 -30h205q43 0 72.5 30t29.5 73v1024 q0 43 -29.5 72.5t-72.5 29.5h-205q-41 0 -72 -29.5t-31 -72.5v-1024z" />
<glyph unicode="&#xd5;" d="M125 205v1024q0 86 59.5 145.5t145.5 59.5h205q86 0 145 -59.5t59 -145.5v-1024q0 -86 -59 -145.5t-145 -59.5h-205q-86 0 -145.5 59.5t-59.5 145.5zM160 1679l129 129q20 20 53 21q33 0 53 -21l131 -129l127 129l53 -53l-129 -129q-23 -23 -53 -22q-31 0 -53 22 l-131 129l-129 -127zM227 205q0 -43 31 -73t72 -30h205q43 0 72.5 30t29.5 73v1024q0 43 -29.5 72.5t-72.5 29.5h-205q-41 0 -72 -29.5t-31 -72.5v-1024z" />
<glyph unicode="&#xd6;" d="M125 205v1024q0 86 59.5 145.5t145.5 59.5h205q86 0 145 -59.5t59 -145.5v-1024q0 -86 -59 -145.5t-145 -59.5h-205q-86 0 -145.5 59.5t-59.5 145.5zM227 205q0 -43 31 -73t72 -30h205q43 0 72.5 30t29.5 73v1024q0 43 -29.5 72.5t-72.5 29.5h-205q-41 0 -72 -29.5 t-31 -72.5v-1024zM235 1716q0 29 19.5 48.5t48.5 19.5t48.5 -19.5t19.5 -48.5t-19.5 -48t-48.5 -19t-48.5 19.5t-19.5 47.5zM493 1716q0 29 19.5 48.5t48.5 19.5t48.5 -19.5t19.5 -48.5t-19.5 -48t-48.5 -19t-48.5 19.5t-19.5 47.5z" />
<glyph unicode="&#xd7;" horiz-adv-x="964" d="M158 739l65 66l258 -258l260 260l66 -66l-262 -260l258 -256l-66 -65l-256 256l-254 -254l-65 65l254 254z" />
<glyph unicode="&#xd8;" d="M43 -154l107 265q-25 45 -25 94v1024q0 86 59.5 145.5t145.5 59.5h205q68 0 124 -41l74 190h90l-104 -266q20 -39 20 -88v-1024q0 -86 -59 -145.5t-145 -59.5h-205q-68 0 -119 39l-78 -193h-90zM227 307l391 981q-31 43 -83 43h-205q-41 0 -72 -29.5t-31 -72.5v-922z M252 141q31 -39 78 -39h205q43 0 72.5 30t29.5 73v907z" />
<glyph unicode="&#xd9;" d="M125 205v1229h102v-1229q0 -43 31 -73t72 -30h205q43 0 72.5 30t29.5 73v1229h102v-1229q0 -86 -59 -145.5t-145 -59.5h-205q-86 0 -145.5 59.5t-59.5 145.5zM278 1792l54 53l256 -256l-54 -53z" />
<glyph unicode="&#xda;" d="M125 205v1229h102v-1229q0 -43 31 -73t72 -30h205q43 0 72.5 30t29.5 73v1229h102v-1229q0 -86 -59 -145.5t-145 -59.5h-205q-86 0 -145.5 59.5t-59.5 145.5zM278 1589l256 256l54 -53l-256 -256z" />
<glyph unicode="&#xdb;" d="M125 205v1229h102v-1229q0 -43 31 -73t72 -30h205q43 0 72.5 30t29.5 73v1229h102v-1229q0 -86 -59 -145.5t-145 -59.5h-205q-86 0 -145.5 59.5t-59.5 145.5zM195 1624l237 238l238 -238l-54 -53l-184 184l-184 -184z" />
<glyph unicode="&#xdc;" d="M125 205v1229h102v-1229q0 -43 31 -73t72 -30h205q43 0 72.5 30t29.5 73v1229h102v-1229q0 -86 -59 -145.5t-145 -59.5h-205q-86 0 -145.5 59.5t-59.5 145.5zM235 1716q0 29 19.5 48.5t48.5 19.5t48.5 -19.5t19.5 -48.5t-19.5 -48t-48.5 -19t-48.5 19.5t-19.5 47.5z M493 1716q0 29 19.5 48.5t48.5 19.5t48.5 -19.5t19.5 -48.5t-19.5 -48t-48.5 -19t-48.5 19.5t-19.5 47.5z" />
<glyph unicode="&#xdd;" horiz-adv-x="763" d="M23 1434h110l248 -758l250 758h108l-309 -881v-553h-102v553zM229 1589l256 256l54 -53l-256 -256z" />
<glyph unicode="&#xde;" horiz-adv-x="813" d="M125 0v1434h102v-295h308q43 0 79.5 -16.5t64.5 -44t44 -64.5t16 -80v-451q0 -43 -16 -79.5t-44 -64.5t-64.5 -44t-79.5 -16h-308v-279h-102zM227 381h308q43 0 72.5 30.5t29.5 71.5v451q0 43 -29.5 72.5t-72.5 29.5h-308v-655z" />
<glyph unicode="&#xdf;" horiz-adv-x="772" d="M125 0v1249q0 76 54 130.5t130 54.5h154q39 0 72.5 -14.5t58 -40t39 -59.5t14.5 -71v-174q0 -59 -27.5 -101t-74.5 -56q47 -14 74.5 -56.5t27.5 -101.5v-576q0 -78 -53 -131t-131 -53h-74v92h74q39 0 65.5 26.5t26.5 65.5v594q0 39 -26.5 66.5t-65.5 27.5h-74v91h74 q39 0 65.5 27.5t26.5 64.5v194q0 39 -26.5 65.5t-65.5 26.5h-154q-37 0 -64.5 -26.5t-27.5 -65.5v-1249h-92z" />
<glyph unicode="&#xe0;" horiz-adv-x="741" d="M94 184v181q0 82 53.5 133t131.5 51h124q47 0 79 -21.5t42 -56.5v307q0 39 -26.5 65.5t-65.5 26.5h-268v93h268q39 0 73 -14.5t58.5 -40t38.5 -59.5t14 -71v-778h-92v78q-10 -35 -41.5 -56.5t-79.5 -21.5h-120q-37 0 -72 14.5t-60.5 40t-41 59t-15.5 70.5zM188 184 q0 -39 27 -65.5t66 -26.5h151q39 0 65.5 26.5t26.5 65.5v181q0 37 -26.5 64.5t-65.5 27.5h-151q-39 0 -66 -28t-27 -64v-181zM202 1321l54 53l256 -256l-54 -53z" />
<glyph unicode="&#xe1;" horiz-adv-x="741" d="M94 184v181q0 82 53.5 133t131.5 51h124q47 0 79 -21.5t42 -56.5v307q0 39 -26.5 65.5t-65.5 26.5h-268v93h268q39 0 73 -14.5t58.5 -40t38.5 -59.5t14 -71v-778h-92v78q-10 -35 -41.5 -56.5t-79.5 -21.5h-120q-37 0 -72 14.5t-60.5 40t-41 59t-15.5 70.5zM188 184 q0 -39 27 -65.5t66 -26.5h151q39 0 65.5 26.5t26.5 65.5v181q0 37 -26.5 64.5t-65.5 27.5h-151q-39 0 -66 -28t-27 -64v-181zM202 1118l256 256l54 -53l-256 -256z" />
<glyph unicode="&#xe2;" horiz-adv-x="741" d="M94 184v181q0 82 53.5 133t131.5 51h124q47 0 79 -21.5t42 -56.5v307q0 39 -26.5 65.5t-65.5 26.5h-268v93h268q39 0 73 -14.5t58.5 -40t38.5 -59.5t14 -71v-778h-92v78q-10 -35 -41.5 -56.5t-79.5 -21.5h-120q-37 0 -72 14.5t-60.5 40t-41 59t-15.5 70.5zM119 1153 l237 238l238 -238l-53 -53l-185 184l-184 -184zM188 184q0 -39 27 -65.5t66 -26.5h151q39 0 65.5 26.5t26.5 65.5v181q0 37 -26.5 64.5t-65.5 27.5h-151q-39 0 -66 -28t-27 -64v-181z" />
<glyph unicode="&#xe3;" horiz-adv-x="741" d="M84 1208l129 129q20 20 53 21q33 0 53 -21l131 -129l127 129l53 -53l-129 -129q-23 -23 -53 -22q-31 0 -53 22l-131 129l-129 -127zM94 184v181q0 82 53.5 133t131.5 51h124q47 0 79 -21.5t42 -56.5v307q0 39 -26.5 65.5t-65.5 26.5h-268v93h268q39 0 73 -14.5t58.5 -40 t38.5 -59.5t14 -71v-778h-92v78q-10 -35 -41.5 -56.5t-79.5 -21.5h-120q-37 0 -72 14.5t-60.5 40t-41 59t-15.5 70.5zM188 184q0 -39 27 -65.5t66 -26.5h151q39 0 65.5 26.5t26.5 65.5v181q0 37 -26.5 64.5t-65.5 27.5h-151q-39 0 -66 -28t-27 -64v-181z" />
<glyph unicode="&#xe4;" horiz-adv-x="741" d="M94 184v181q0 82 53.5 133t131.5 51h124q47 0 79 -21.5t42 -56.5v307q0 39 -26.5 65.5t-65.5 26.5h-268v93h268q39 0 73 -14.5t58.5 -40t38.5 -59.5t14 -71v-778h-92v78q-10 -35 -41.5 -56.5t-79.5 -21.5h-120q-37 0 -72 14.5t-60.5 40t-41 59t-15.5 70.5zM159 1245 q0 29 19.5 48.5t48.5 19.5t48.5 -19.5t19.5 -48.5t-19.5 -48t-48.5 -19t-48.5 19.5t-19.5 47.5zM188 184q0 -39 27 -65.5t66 -26.5h151q39 0 65.5 26.5t26.5 65.5v181q0 37 -26.5 64.5t-65.5 27.5h-151q-39 0 -66 -28t-27 -64v-181zM417 1245q0 29 19.5 48.5t48.5 19.5 t48.5 -19.5t19.5 -48.5t-19.5 -48t-48.5 -19t-48.5 19.5t-19.5 47.5z" />
<glyph unicode="&#xe5;" horiz-adv-x="741" d="M94 184v181q0 82 53.5 133t131.5 51h124q47 0 79 -21.5t42 -56.5v307q0 39 -26.5 65.5t-65.5 26.5h-268v93h268q39 0 73 -14.5t58.5 -40t38.5 -59.5t14 -71v-778h-92v78q-10 -35 -41.5 -56.5t-79.5 -21.5h-120q-37 0 -72 14.5t-60.5 40t-41 59t-15.5 70.5zM188 184 q0 -39 27 -65.5t66 -26.5h151q39 0 65.5 26.5t26.5 65.5v181q0 37 -26.5 64.5t-65.5 27.5h-151q-39 0 -66 -28t-27 -64v-181zM211 1223q0 59 44 102t103 43t103 -43q43 -43 43 -102q0 -61 -42 -105q-42 -43 -104 -43q-61 0 -104 43t-43 105zM262 1223q0 -41 28 -70t68 -29 q41 0 70 29t29 70t-29 68q-29 28 -70 28t-68 -28q-28 -28 -28 -68z" />
<glyph unicode="&#xe6;" horiz-adv-x="1173" d="M94 184v181q0 82 53.5 133t131.5 51h124q14 -2 27.5 -4t26.5 -6q55 -23 67 -68v307q0 39 -26.5 65.5t-65.5 26.5h-268v93h268q53 0 91 -25t46 -74q8 49 46 74t94 25h153q76 0 130.5 -54.5t54.5 -130.5v-362h-431v-232q0 -39 27 -65.5t66 -26.5h270v-92h-270 q-55 0 -93 24.5t-47 73.5q-8 -49 -46 -73.5t-91 -24.5h-149q-37 0 -72 14.5t-60.5 40t-41 59t-15.5 70.5zM188 184q0 -39 27 -65.5t66 -26.5h151q39 0 65.5 26.5t26.5 65.5v181q0 37 -26.5 64.5t-65.5 27.5h-151q-39 0 -66 -28t-27 -64v-181zM616 508h338v270 q0 39 -26.5 65.5t-65.5 26.5h-153q-39 0 -66 -26.5t-27 -65.5v-270z" />
<glyph unicode="&#xe7;" horiz-adv-x="774" d="M125 184v594q0 76 54 130.5t130 54.5h154q39 0 72.5 -14.5t58 -40t39 -59.5t14.5 -71v-137h-92v137q0 39 -26.5 65.5t-65.5 26.5h-154q-37 0 -64.5 -26.5t-27.5 -65.5v-594q0 -39 27.5 -65.5t64.5 -26.5h154q39 0 65.5 26.5t26.5 65.5v140h92v-140q0 -37 -14.5 -70.5 t-39 -59t-58 -40t-72.5 -14.5h-76v-82h125v-154q0 -33 -23.5 -57t-56.5 -24h-174v77h176v80h-125v160q-76 0 -130 54.5t-54 129.5z" />
<glyph unicode="&#xe8;" horiz-adv-x="774" d="M125 184v594q0 76 54 130.5t130 54.5h154q39 0 72.5 -14.5t58 -40t39 -59.5t14.5 -71v-362h-430v-232q0 -39 27.5 -65.5t64.5 -26.5h271v-92h-271q-76 0 -130 54.5t-54 129.5zM217 508h338v270q0 39 -26.5 65.5t-65.5 26.5h-154q-37 0 -64.5 -26.5t-27.5 -65.5v-270z M231 1321l54 53l256 -256l-54 -53z" />
<glyph unicode="&#xe9;" horiz-adv-x="774" d="M125 184v594q0 76 54 130.5t130 54.5h154q39 0 72.5 -14.5t58 -40t39 -59.5t14.5 -71v-362h-430v-232q0 -39 27.5 -65.5t64.5 -26.5h271v-92h-271q-76 0 -130 54.5t-54 129.5zM217 508h338v270q0 39 -26.5 65.5t-65.5 26.5h-154q-37 0 -64.5 -26.5t-27.5 -65.5v-270z M231 1118l256 256l54 -53l-256 -256z" />
<glyph unicode="&#xea;" horiz-adv-x="774" d="M125 184v594q0 76 54 130.5t130 54.5h154q39 0 72.5 -14.5t58 -40t39 -59.5t14.5 -71v-362h-430v-232q0 -39 27.5 -65.5t64.5 -26.5h271v-92h-271q-76 0 -130 54.5t-54 129.5zM150 1153l237 238l238 -238l-54 -53l-184 184l-184 -184zM217 508h338v270q0 39 -26.5 65.5 t-65.5 26.5h-154q-37 0 -64.5 -26.5t-27.5 -65.5v-270z" />
<glyph unicode="&#xeb;" horiz-adv-x="774" d="M125 184v594q0 76 54 130.5t130 54.5h154q39 0 72.5 -14.5t58 -40t39 -59.5t14.5 -71v-362h-430v-232q0 -39 27.5 -65.5t64.5 -26.5h271v-92h-271q-76 0 -130 54.5t-54 129.5zM188 1245q0 29 19.5 48.5t48.5 19.5t48.5 -19.5t19.5 -48.5t-19.5 -48t-48.5 -19t-48.5 19.5 t-19.5 47.5zM217 508h338v270q0 39 -26.5 65.5t-65.5 26.5h-154q-37 0 -64.5 -26.5t-27.5 -65.5v-270zM446 1245q0 29 19.5 48.5t48.5 19.5t48.5 -19.5t19.5 -48.5t-19.5 -48t-48.5 -19t-48.5 19.5t-19.5 47.5z" />
<glyph unicode="&#xec;" horiz-adv-x="344" d="M18 1321l54 53l256 -256l-54 -53zM125 0v963h92v-963h-92z" />
<glyph unicode="&#xed;" horiz-adv-x="344" d="M18 1118l256 256l54 -53l-256 -256zM125 0v963h92v-963h-92z" />
<glyph unicode="&#xee;" horiz-adv-x="344" d="M-66 1153l238 238l238 -238l-54 -53l-184 184l-184 -184zM125 0v963h92v-963h-92z" />
<glyph unicode="&#xef;" horiz-adv-x="344" d="M-25 1245q0 29 19.5 48.5t48.5 19.5t48.5 -19.5t19.5 -48.5t-19.5 -48t-48.5 -19t-48.5 19.5t-19.5 47.5zM125 0v963h92v-963h-92zM233 1245q0 29 19.5 48.5t48.5 19.5t48.5 -19.5t19.5 -48.5t-19.5 -48t-48.5 -19t-48.5 19.5t-19.5 47.5z" />
<glyph unicode="&#xf0;" horiz-adv-x="774" d="M125 184v594q0 76 54 130.5t130 54.5h107q43 0 71.5 -11.5t44.5 -31.5l-126 266l-150 -70l-39 84l150 70l-78 164h104l58 -125l157 73l39 -84l-155 -73l122 -262q20 -41 26.5 -81t6.5 -104v-594q0 -37 -14.5 -70.5t-39 -59t-58 -40t-72.5 -14.5h-154q-76 0 -130 54.5 t-54 129.5zM217 184q0 -39 27.5 -65.5t64.5 -26.5h154q39 0 65.5 26.5t26.5 65.5v594q0 39 -26.5 65.5t-65.5 26.5h-154q-37 0 -64.5 -26.5t-27.5 -65.5v-594z" />
<glyph unicode="&#xf1;" horiz-adv-x="774" d="M113 1208l129 129q20 20 53 21q33 0 53 -21l131 -129l127 129l53 -53l-129 -129q-23 -23 -53 -22q-31 0 -53 22l-131 129l-129 -127zM125 0v963h92v-93q31 92 148 93h98q78 0 131 -53.5t53 -131.5v-778h-92v778q0 39 -26.5 65.5t-65.5 26.5h-154q-37 0 -64.5 -26.5 t-27.5 -65.5v-778h-92z" />
<glyph unicode="&#xf2;" horiz-adv-x="772" d="M125 184v594q0 39 14.5 73t40 58.5t59 39t70.5 14.5h154q78 0 131 -53.5t53 -131.5v-594q0 -37 -14.5 -70.5t-39 -59t-58 -40t-72.5 -14.5h-154q-76 0 -130 54.5t-54 129.5zM217 184q0 -39 27.5 -65.5t64.5 -26.5h154q39 0 65.5 26.5t26.5 65.5v594q0 39 -26.5 65.5 t-65.5 26.5h-154q-37 0 -64.5 -26.5t-27.5 -65.5v-594zM231 1321l54 53l256 -256l-54 -53z" />
<glyph unicode="&#xf3;" horiz-adv-x="772" d="M125 184v594q0 39 14.5 73t40 58.5t59 39t70.5 14.5h154q78 0 131 -53.5t53 -131.5v-594q0 -37 -14.5 -70.5t-39 -59t-58 -40t-72.5 -14.5h-154q-76 0 -130 54.5t-54 129.5zM217 184q0 -39 27.5 -65.5t64.5 -26.5h154q39 0 65.5 26.5t26.5 65.5v594q0 39 -26.5 65.5 t-65.5 26.5h-154q-37 0 -64.5 -26.5t-27.5 -65.5v-594zM231 1118l256 256l54 -53l-256 -256z" />
<glyph unicode="&#xf4;" horiz-adv-x="772" d="M125 184v594q0 39 14.5 73t40 58.5t59 39t70.5 14.5h154q78 0 131 -53.5t53 -131.5v-594q0 -37 -14.5 -70.5t-39 -59t-58 -40t-72.5 -14.5h-154q-76 0 -130 54.5t-54 129.5zM150 1153l237 238l238 -238l-54 -53l-184 184l-184 -184zM217 184q0 -39 27.5 -65.5t64.5 -26.5 h154q39 0 65.5 26.5t26.5 65.5v594q0 39 -26.5 65.5t-65.5 26.5h-154q-37 0 -64.5 -26.5t-27.5 -65.5v-594z" />
<glyph unicode="&#xf5;" horiz-adv-x="772" d="M113 1208l129 129q20 20 53 21q33 0 53 -21l131 -129l127 129l53 -53l-129 -129q-23 -23 -53 -22q-31 0 -53 22l-131 129l-129 -127zM125 184v594q0 39 14.5 73t40 58.5t59 39t70.5 14.5h154q78 0 131 -53.5t53 -131.5v-594q0 -37 -14.5 -70.5t-39 -59t-58 -40 t-72.5 -14.5h-154q-76 0 -130 54.5t-54 129.5zM217 184q0 -39 27.5 -65.5t64.5 -26.5h154q39 0 65.5 26.5t26.5 65.5v594q0 39 -26.5 65.5t-65.5 26.5h-154q-37 0 -64.5 -26.5t-27.5 -65.5v-594z" />
<glyph unicode="&#xf6;" horiz-adv-x="772" d="M125 184v594q0 39 14.5 73t40 58.5t59 39t70.5 14.5h154q78 0 131 -53.5t53 -131.5v-594q0 -37 -14.5 -70.5t-39 -59t-58 -40t-72.5 -14.5h-154q-76 0 -130 54.5t-54 129.5zM188 1245q0 29 19.5 48.5t48.5 19.5t48.5 -19.5t19.5 -48.5t-19.5 -48t-48.5 -19t-48.5 19.5 t-19.5 47.5zM217 184q0 -39 27.5 -65.5t64.5 -26.5h154q39 0 65.5 26.5t26.5 65.5v594q0 39 -26.5 65.5t-65.5 26.5h-154q-37 0 -64.5 -26.5t-27.5 -65.5v-594zM446 1245q0 29 19.5 48.5t48.5 19.5t48.5 -19.5t19.5 -48.5t-19.5 -48t-48.5 -19t-48.5 19.5t-19.5 47.5z" />
<glyph unicode="&#xf7;" horiz-adv-x="966" d="M74 434v92h819v-92h-819zM395 133q0 35 23.5 58.5t58.5 23.5t58.5 -23.5t23.5 -58.5t-23.5 -58.5t-58.5 -23.5t-58.5 23.5t-23.5 58.5zM395 829q0 35 23.5 58.5t58.5 23.5t58.5 -23.5t23.5 -58.5t-23.5 -58t-58.5 -23t-58.5 23.5t-23.5 57.5z" />
<glyph unicode="&#xf8;" horiz-adv-x="772" d="M8 -109l129 228q-12 33 -12 65v594q0 39 14.5 73t40 58.5t59 39t70.5 14.5h154q74 0 127 -50l90 158h88l-131 -229q10 -35 10 -64v-594q0 -37 -14.5 -70.5t-39 -59t-58 -40t-72.5 -14.5h-154q-74 0 -125 49l-88 -158h-88zM217 260l324 567q-29 43 -78 43h-154 q-37 0 -64.5 -26.5t-27.5 -65.5v-518zM233 133q29 -41 76 -41h154q39 0 65.5 26.5t26.5 65.5v514z" />
<glyph unicode="&#xf9;" horiz-adv-x="774" d="M125 184v779h92v-779q0 -39 27.5 -65.5t64.5 -26.5h154q39 0 65.5 26.5t26.5 65.5v779h92v-963h-92v92q-31 -92 -147 -92h-99q-76 0 -130 54.5t-54 129.5zM231 1321l54 53l256 -256l-54 -53z" />
<glyph unicode="&#xfa;" horiz-adv-x="774" d="M125 184v779h92v-779q0 -39 27.5 -65.5t64.5 -26.5h154q39 0 65.5 26.5t26.5 65.5v779h92v-963h-92v92q-31 -92 -147 -92h-99q-76 0 -130 54.5t-54 129.5zM231 1118l256 256l54 -53l-256 -256z" />
<glyph unicode="&#xfb;" horiz-adv-x="774" d="M125 184v779h92v-779q0 -39 27.5 -65.5t64.5 -26.5h154q39 0 65.5 26.5t26.5 65.5v779h92v-963h-92v92q-31 -92 -147 -92h-99q-76 0 -130 54.5t-54 129.5zM150 1153l237 238l238 -238l-54 -53l-184 184l-184 -184z" />
<glyph unicode="&#xfc;" horiz-adv-x="774" d="M125 184v779h92v-779q0 -39 27.5 -65.5t64.5 -26.5h154q39 0 65.5 26.5t26.5 65.5v779h92v-963h-92v92q-31 -92 -147 -92h-99q-76 0 -130 54.5t-54 129.5zM188 1245q0 29 19.5 48.5t48.5 19.5t48.5 -19.5t19.5 -48.5t-19.5 -48t-48.5 -19t-48.5 19.5t-19.5 47.5z M446 1245q0 29 19.5 48.5t48.5 19.5t48.5 -19.5t19.5 -48.5t-19.5 -48t-48.5 -19t-48.5 19.5t-19.5 47.5z" />
<glyph unicode="&#xfd;" horiz-adv-x="722" d="M47 963h96l219 -844l218 844h96l-357 -1270h-104l94 307zM208 1118l256 256l54 -53l-256 -256z" />
<glyph unicode="&#xfe;" horiz-adv-x="774" d="M125 -307v1741h92v-564q31 92 148 93h98q76 0 130 -54.5t54 -130.5v-594q0 -76 -54 -130t-130 -54h-98q-115 0 -148 92v-399h-92zM217 184q0 -39 27.5 -65.5t64.5 -26.5h154q39 0 65.5 26.5t26.5 65.5v594q0 39 -26.5 65.5t-65.5 26.5h-154q-37 0 -64.5 -26.5 t-27.5 -65.5v-594z" />
<glyph unicode="&#xff;" horiz-adv-x="722" d="M47 963h96l219 -844l218 844h96l-357 -1270h-104l94 307zM165 1245q0 29 19.5 48.5t48.5 19.5t48.5 -19.5t19.5 -48.5t-19.5 -48t-48.5 -19t-48.5 19.5t-19.5 47.5zM423 1245q0 29 19.5 48.5t48.5 19.5t48.5 -19.5t19.5 -48.5t-19.5 -48t-48.5 -19t-48.5 19.5t-19.5 47.5 z" />
<glyph unicode="&#x152;" horiz-adv-x="1228" d="M129 205v1024q0 43 15.5 80t43 64.5t65.5 44t81 16.5h229q53 0 85 -33t40 -78v111h463v-103h-410v-522h308v-102h-308v-605h410v-102h-463v111q-8 -45 -40 -78t-85 -33h-229q-43 0 -81 16.5t-65.5 44t-43 64.5t-15.5 80zM229 205q0 -43 31 -73t72 -30h205q43 0 72.5 30 t29.5 73v1024q0 43 -29.5 72.5t-72.5 29.5h-205q-41 0 -72 -29.5t-31 -72.5v-1024z" />
<glyph unicode="&#x153;" horiz-adv-x="1202" d="M125 184v594q0 78 53 131.5t131 53.5h154q53 0 91 -25t46 -74q8 49 46 74t93 25h154q78 0 131 -53.5t53 -131.5v-362h-430v-232q0 -39 26.5 -65.5t65.5 -26.5h271v-92h-271q-55 0 -93 24.5t-46 73.5q-8 -49 -46 -73.5t-91 -24.5h-154q-78 0 -131 53t-53 131zM217 184 q0 -39 26.5 -65.5t65.5 -26.5h154q39 0 65.5 26.5t26.5 65.5v594q0 39 -26.5 65.5t-65.5 26.5h-154q-39 0 -65.5 -26.5t-26.5 -65.5v-594zM647 508h338v270q0 39 -26.5 65.5t-65.5 26.5h-154q-39 0 -65.5 -26.5t-26.5 -65.5v-270z" />
<glyph unicode="&#x178;" horiz-adv-x="763" d="M23 1434h110l248 -758l250 758h108l-309 -881v-553h-102v553zM186 1716q0 29 19.5 48.5t48.5 19.5t48.5 -19.5t19.5 -48.5t-19.5 -48t-48.5 -19t-48.5 19.5t-19.5 47.5zM444 1716q0 29 19.5 48.5t48.5 19.5t48.5 -19.5t19.5 -48.5t-19.5 -48t-48.5 -19t-48.5 19.5 t-19.5 47.5z" />
<glyph unicode="&#x2c6;" horiz-adv-x="772" d="M150 1153l237 238l238 -238l-54 -53l-184 184l-184 -184z" />
<glyph unicode="&#x2dc;" horiz-adv-x="772" d="M113 1208l129 129q20 20 53 21q33 0 53 -21l131 -129l127 129l53 -53l-129 -129q-23 -23 -53 -22q-31 0 -53 22l-131 129l-129 -127z" />
<glyph unicode="&#x2000;" horiz-adv-x="931" />
<glyph unicode="&#x2001;" horiz-adv-x="1862" />
<glyph unicode="&#x2002;" horiz-adv-x="931" />
<glyph unicode="&#x2003;" horiz-adv-x="1862" />
<glyph unicode="&#x2004;" horiz-adv-x="620" />
<glyph unicode="&#x2005;" horiz-adv-x="465" />
<glyph unicode="&#x2006;" horiz-adv-x="310" />
<glyph unicode="&#x2007;" horiz-adv-x="310" />
<glyph unicode="&#x2008;" horiz-adv-x="232" />
<glyph unicode="&#x2009;" horiz-adv-x="372" />
<glyph unicode="&#x200a;" horiz-adv-x="103" />
<glyph unicode="&#x2010;" horiz-adv-x="579" d="M74 434v92h432v-92h-432z" />
<glyph unicode="&#x2011;" horiz-adv-x="579" d="M74 434v92h432v-92h-432z" />
<glyph unicode="&#x2012;" horiz-adv-x="579" d="M74 434v92h432v-92h-432z" />
<glyph unicode="&#x2013;" horiz-adv-x="874" d="M74 436v92h727v-92h-727z" />
<glyph unicode="&#x2014;" horiz-adv-x="1292" d="M74 436v92h1145v-92h-1145z" />
<glyph unicode="&#x2018;" horiz-adv-x="372" d="M104 1167q0 18 9 33l104 234h49l-69 -185q31 -4 51 -26.5t20 -55.5q0 -35 -23.5 -58.5t-58.5 -23.5t-58.5 24t-23.5 58z" />
<glyph unicode="&#x2019;" horiz-adv-x="372" d="M104 1372q0 35 24 58.5t58 23.5q35 0 58.5 -23.5t23.5 -58.5q0 -18 -6 -33l-106 -233h-50l70 186q-29 4 -50.5 26.5t-21.5 53.5z" />
<glyph unicode="&#x201c;" horiz-adv-x="606" d="M104 1167q0 18 9 33l104 234h49l-69 -185q31 -4 51 -26.5t20 -55.5q0 -35 -23.5 -58.5t-58.5 -23.5t-58.5 24t-23.5 58zM338 1167q0 16 6 33l107 234h49l-70 -185q29 -4 50.5 -26.5t21.5 -55.5q0 -35 -23.5 -58.5t-58.5 -23.5t-58.5 24t-23.5 58z" />
<glyph unicode="&#x201d;" horiz-adv-x="606" d="M104 1372q0 35 24 58.5t58 23.5q35 0 58.5 -23.5t23.5 -58.5q0 -18 -6 -33l-106 -233h-50l70 186q-29 4 -50.5 26.5t-21.5 53.5zM338 1372q0 35 23.5 58.5t58.5 23.5t58.5 -23.5t23.5 -58.5q0 -18 -8 -33l-105 -233h-49l70 186q-31 4 -51.5 26.5t-20.5 53.5z" />
<glyph unicode="&#x201e;" horiz-adv-x="641" d="M104 61q0 35 24 58.5t58 23.5q35 0 58.5 -23.5t23.5 -58.5q0 -18 -6 -32l-106 -234h-50l70 185q-29 4 -50.5 27.5t-21.5 53.5zM373 61q0 35 23.5 58.5t58.5 23.5t58.5 -23.5t23.5 -58.5q0 -18 -7 -32l-106 -234h-49l69 185q-29 4 -50 27.5t-21 53.5z" />
<glyph unicode="&#x2022;" horiz-adv-x="753" d="M109 481q0 55 20.5 104.5t57 86.5t86 58.5t104.5 21.5t104 -21.5t86 -58.5t57.5 -86.5t20.5 -104.5t-20.5 -104t-57.5 -86t-86 -58.5t-104 -21.5t-104.5 21.5t-86 58.5t-57 86t-20.5 104z" />
<glyph unicode="&#x2026;" horiz-adv-x="1116" d="M102 61q0 35 24 58.5t58 23.5q35 0 57.5 -23.5t22.5 -58.5t-22.5 -58t-57.5 -23t-58.5 23.5t-23.5 57.5zM475 61q0 35 23.5 58.5t58.5 23.5t58.5 -23.5t23.5 -58.5t-23.5 -58t-58.5 -23t-58.5 23.5t-23.5 57.5zM848 61q0 35 23.5 58.5t58.5 23.5t58.5 -23.5t23.5 -58.5 t-23.5 -58t-58.5 -23t-58.5 23.5t-23.5 57.5z" />
<glyph unicode="&#x202f;" horiz-adv-x="372" />
<glyph unicode="&#x2039;" horiz-adv-x="448" d="M88 506l238 237l53 -53l-184 -184l184 -184l-53 -54z" />
<glyph unicode="&#x203a;" horiz-adv-x="448" d="M70 322l184 184l-184 184l53 53l237 -237l-237 -238z" />
<glyph unicode="&#x205f;" horiz-adv-x="465" />
<glyph unicode="&#x20ac;" horiz-adv-x="923" d="M78 514v102h106v197h-106v102h106v314q0 43 15.5 80t43 64.5t65.5 44t81 16.5h205q86 0 145.5 -59.5t59.5 -145.5v-154h-103v154q0 43 -30.5 72.5t-71.5 29.5h-205q-43 0 -72.5 -29.5t-29.5 -72.5v-314h282v-102h-282v-197h282v-102h-282v-309q0 -43 29.5 -73t72.5 -30 h205q41 0 71.5 30t30.5 73v153h103v-153q0 -86 -59.5 -145.5t-145.5 -59.5h-205q-43 0 -81 16.5t-65.5 44t-43 64.5t-15.5 80v309h-106z" />
<glyph unicode="&#x2122;" horiz-adv-x="886" d="M61 1393v41h246v-41h-102v-533h-41v533h-103zM430 860v574h64l108 -338l109 338h63v-574h-41v498l-119 -365h-24l-119 365v-498h-41z" />
<glyph unicode="&#x25fc;" horiz-adv-x="962" d="M0 0v963h963v-963h-963z" />
</font>
</defs>
</svg>
